<svg width="512" height="512" viewBox="0 0 512 512" fill="none" xmlns="http://www.w3.org/2000/svg">
  <!-- Outer circle -->
  <circle cx="256" cy="256" r="240" fill="white" stroke="#333333" stroke-width="6"/>
  
  <!-- Inner circle -->
  <circle cx="256" cy="256" r="220" fill="white" stroke="#C9366F" stroke-width="2"/>
  
  <!-- Text around the top of the circle -->
  <path id="topText" d="M 256, 60 a 196, 196 0 0 1 0, 392 a 196, 196 0 0 1 0, -392" fill="none"/>
  <text>
    <textPath href="#topText" startOffset="50%" text-anchor="middle" font-family="Arial" font-weight="bold" font-size="20" fill="#333333">
      SIDDHARTH INSTITUTE OF PHARMACY    </textPath>
  </text>
  
  <!-- Text around the bottom of the circle -->
  <path id="bottomText" d="M 256, 452 a 196, 196 0 0 1 0, -392 a 196, 196 0 0 1 0, 392" fill="none"/>
  <text>
    <textPath href="#bottomText" startOffset="50%" text-anchor="middle" font-family="Arial" font-weight="bold" font-size="16" fill="#333333">
      CHHATRAPATI SAMBHAJINAGAR • ESTD-2020
    </textPath>
  </text>
  
  <!-- Fashion design elements in the center -->
  <g transform="translate(256, 256) scale(0.8)">
    <!-- Mannequin silhouette -->
    <path d="M -20, 20 C -30, -40, -60, -80, -40, -120 C -20, -160, 20, -160, 40, -120 C 60, -80, 30, -40, 20, 20" stroke="#333333" stroke-width="6" fill="none"/>
    
    <!-- Dress form -->
    <path d="M -20, 20 C -20, 60, -30, 100, -20, 140 C 0, 160, 20, 160, 40, 140 C 50, 100, 40, 60, 20, 20" stroke="#333333" stroke-width="6" fill="none"/>
    
    <!-- Needle and thread -->
    <line x1="-80" y1="-60" x2="80" y2="60" stroke="#C9366F" stroke-width="4"/>
    <circle cx="-80" cy="-60" r="8" fill="#C9366F"/>
    
    <!-- Scissors -->
    <path d="M 60, -80 C 70, -70, 80, -60, 90, -50 C 70, -40, 50, -30, 30, -20" stroke="#333333" stroke-width="4" fill="none"/>
    <path d="M 60, -80 C 50, -70, 40, -60, 30, -50 C 50, -40, 70, -30, 90, -20" stroke="#333333" stroke-width="4" fill="none"/>
    <circle cx="60" cy="-80" r="10" fill="#333333"/>
    <circle cx="90" cy="-20" r="10" fill="#333333"/>
    
  </g>
  
</svg>
